<?xml version="1.0" encoding="UTF-8" standalone="no"?>
<svg
   xmlns:dc="http://purl.org/dc/elements/1.1/"
   xmlns:cc="http://creativecommons.org/ns#"
   xmlns:rdf="http://www.w3.org/1999/02/22-rdf-syntax-ns#"
   xmlns:svg="http://www.w3.org/2000/svg"
   xmlns="http://www.w3.org/2000/svg"
   xmlns:sodipodi="http://sodipodi.sourceforge.net/DTD/sodipodi-0.dtd"
   xmlns:inkscape="http://www.inkscape.org/namespaces/inkscape"
   width="64"
   height="64"
   viewBox="0 0 48 48"
   id="svg3390"
   version="1.1"
   inkscape:version="0.91 r13725"
   sodipodi:docname="logo.svg">
  <metadata
     id="metadata3404">
    <rdf:RDF>
      <cc:Work
         rdf:about="">
        <dc:format>image/svg+xml</dc:format>
        <dc:type
           rdf:resource="http://purl.org/dc/dcmitype/StillImage" />
      </cc:Work>
    </rdf:RDF>
  </metadata>
  <defs
     id="defs3402" />
  <sodipodi:namedview
     pagecolor="#ffffff"
     bordercolor="#666666"
     borderopacity="1"
     objecttolerance="10"
     gridtolerance="10"
     guidetolerance="10"
     inkscape:pageopacity="0"
     inkscape:pageshadow="2"
     inkscape:window-width="1545"
     inkscape:window-height="876"
     id="namedview3400"
     showgrid="false"
     inkscape:zoom="11.609375"
     inkscape:cx="19.854643"
     inkscape:cy="32"
     inkscape:window-x="55"
     inkscape:window-y="24"
     inkscape:window-maximized="1"
     inkscape:current-layer="svg3390" />
  <g
     id="g3483">
    <path
       id="path3392"
       style="fill:#66a6d1;fill-opacity:1;stroke:none;fill-rule:nonzero"
       d="m 8.531 9.352 30.938 0 0 22.687 -30.938 0 z m 0 0" />
    <path
       id="path3394"
       style="fill:#eee6d4;fill-opacity:0.231;stroke:none;fill-rule:nonzero"
       d="m 28.13 9.352 -7.895 22.687 19.238 0 0 -22.687 z m 0 0" />
    <path
       id="path3396"
       style="fill:#1c3f4c;fill-opacity:1;stroke:none;fill-rule:nonzero"
       d="m 19.5 33 0 2.25 9 0 0 -2.25 z m -6 4.5 0 2.25 21 0 0 -2.25 z" />
    <rect
       id="rect3398"
       style="stroke-dasharray:none;stroke-opacity:1;fill:none;opacity:1;stroke-miterlimit:4;fill-opacity:1;stroke:#1c3f4c;fill-rule:nonzero;stroke-linecap:round;stroke-linejoin:miter;stroke-width:2.239;stroke-dashoffset:0"
       ry="1.841"
       rx="1.866"
       y="9.369"
       x="8.619"
       height="23.261"
       width="30.761" />
  </g>
  <path
     style="fill:#ffffff"
     d="m 24.088038,10.495962 c -5.213399,0 -9.467159,4.412374 -9.783847,9.972603 l -3.05469,0 4.91406,7.958903 4.914068,-7.958903 -3.4974,0 c 0.301845,-3.607428 3.097102,-6.424657 6.507809,-6.424657 1.26153,0 2.455358,0.386313 3.453128,1.054794 l 1.682294,-3.020548 c -1.493624,-0.994525 -3.254677,-1.582192 -5.135422,-1.582192 z m 7.747395,3.068493 -4.91406,7.958904 3.4974,0 c -0.301845,3.607428 -3.097102,6.424657 -6.507817,6.424657 -1.261523,0 -2.45535,-0.386312 -3.45312,-1.054794 l -1.682295,3.020548 c 1.493625,0.994524 3.254677,1.582191 5.135415,1.582191 5.213399,2e-6 9.467159,-4.412373 9.783854,-9.972602 l 3.05469,0 -4.91406,-7.958904 z"
     id="path3460"
     inkscape:connector-curvature="0" />
</svg>
